<?xml version="1.0" encoding="iso-8859-1"?>
<!-- Generator: Adobe Illustrator 19.0.0, SVG Export Plug-In . SVG Version: 6.00 Build 0)  -->
<svg version="1.1" id="Layer_1" xmlns="http://www.w3.org/2000/svg" xmlns:xlink="http://www.w3.org/1999/xlink" x="0px" y="0px"
	 viewBox="0 0 512 512" style="enable-background:new 0 0 512 512;" xml:space="preserve">
<g>
	<g>
		<path d="M358.401,192V12.8c0-7.066-5.734-12.8-12.8-12.8h-332.8c-7.066,0-12.8,5.734-12.8,12.8v486.4
			c0,7.066,5.734,12.8,12.8,12.8h332.8c7.066,0,12.8-5.734,12.8-12.8V320h-25.6v166.4h-307.2V25.6h307.2V192H358.401z"/>
	</g>
</g>
<g>
	<g>
		<path d="M508.161,246.844l-74.931-76.595c-4.941-5.06-13.047-5.146-18.099-0.205c-5.052,4.941-5.146,13.056-0.205,18.099
			l53.854,55.057H193.673c-7.066,0-12.8,5.734-12.8,12.8c0,7.066,5.734,12.8,12.8,12.8h275.098l-53.854,55.057
			c-4.941,5.043-4.847,13.158,0.205,18.099c5.06,4.941,13.158,4.855,18.099-0.205l75.128-76.8
			C513.289,259.9,513.204,251.785,508.161,246.844z"/>
	</g>
</g>
<g>
</g>
<g>
</g>
<g>
</g>
<g>
</g>
<g>
</g>
<g>
</g>
<g>
</g>
<g>
</g>
<g>
</g>
<g>
</g>
<g>
</g>
<g>
</g>
<g>
</g>
<g>
</g>
<g>
</g>
</svg>
